<svg width="183" height="47" viewBox="0 0 183 47" fill="none" xmlns="http://www.w3.org/2000/svg">
<path d="M63.3999 18.6C62.2999 18.6 61.2999 18.7 60.2999 18.9C59.2999 19.1 58.4999 19.4 57.8999 19.7L58.1999 22.7C59.0999 22.4 59.8999 22.3 60.5999 22.2C61.2999 22.1 61.9999 22 62.6999 22C65.3999 22 66.7999 23 66.7999 25.1V25.8C66.1999 25.7 65.2999 25.6 64.0999 25.6C61.6999 25.6 59.7999 26.1 58.4999 27.2C57.0999 28.3 56.3999 29.7 56.3999 31.6C56.3999 35.4 58.9999 37.3 64.1999 37.3C66.2999 37.3 68.4999 37 70.7999 36.3V25.3C70.8999 20.9 68.3999 18.6 63.3999 18.6ZM66.7999 33.9C65.9999 34.1 65.1999 34.2 64.1999 34.2C61.6999 34.2 60.4999 33.3 60.4999 31.5C60.4999 29.6 61.8999 28.7 64.5999 28.7C65.6999 28.7 66.3999 28.8 66.7999 28.9V33.9Z" fill="#FF5800"/>
<path d="M72.7 19.1H77.3L81.7 32.8L86.1 19.1H90.5L83.7 36.9H79.5L72.7 19.1Z" fill="#FF5800"/>
<path d="M98.3999 18.6C97.2999 18.6 96.2999 18.7 95.2999 18.9C94.2999 19.1 93.4999 19.4 92.8999 19.7L93.1999 22.7C94.0999 22.4 94.8999 22.3 95.5999 22.2C96.2999 22.1 96.9999 22 97.6999 22C100.4 22 101.8 23 101.8 25.1V25.8C101.2 25.7 100.3 25.6 99.0999 25.6C96.6999 25.6 94.7999 26.1 93.4999 27.2C92.0999 28.3 91.3999 29.7 91.3999 31.6C91.3999 35.4 93.9999 37.3 99.1999 37.3C101.3 37.3 103.5 37 105.8 36.3V25.3C105.9 20.9 103.4 18.6 98.3999 18.6ZM101.8 33.9C101 34.1 100.2 34.2 99.1999 34.2C96.6999 34.2 95.4999 33.3 95.4999 31.5C95.4999 29.6 96.8999 28.7 99.5999 28.7C100.7 28.7 101.4 28.8 101.8 28.9V33.9Z" fill="#FF5800"/>
<path d="M121.7 26.4C121.7 24.8 121.4 23.7 120.8 23.1C120.2 22.5 119.1 22.2 117.5 22.2C117.1 22.2 116.7 22.2 116.1 22.3C115.6 22.4 115.1 22.5 114.6 22.6V37H110.5V20C111.6 19.6 112.8 19.2 114.1 19C115.5 18.8 116.8 18.6 118.1 18.6C123.3 18.6 125.9 20.9 125.9 25.6V36.9H121.8V26.4H121.7Z" fill="#FF5800"/>
<path d="M136.1 18.6C135 18.6 134 18.7 133 18.9C132 19.1 131.2 19.4 130.6 19.7L130.9 22.7C131.8 22.4 132.6 22.3 133.3 22.2C134 22.1 134.7 22 135.4 22C138.1 22 139.5 23 139.5 25.1V25.8C138.9 25.7 138 25.6 136.8 25.6C134.4 25.6 132.5 26.1 131.2 27.2C129.8 28.3 129.1 29.7 129.1 31.6C129.1 35.4 131.7 37.3 136.9 37.3C139 37.3 141.2 37 143.5 36.3V25.3C143.6 20.9 141.1 18.6 136.1 18.6ZM139.5 33.9C138.7 34.1 137.9 34.2 136.9 34.2C134.4 34.2 133.2 33.3 133.2 31.5C133.2 29.6 134.6 28.7 137.3 28.7C138.4 28.7 139.1 28.8 139.5 28.9V33.9Z" fill="#FF5800"/>
<path d="M159 12.2V19C158.2 18.7 157.2 18.6 156 18.6C153.3 18.6 151.1 19.5 149.4 21.2C147.7 23 146.8 25.3 146.8 28.1C146.8 31.1 147.6 33.4 149.3 34.9C151 36.5 153.4 37.3 156.6 37.3C158.6 37.3 160.8 37 163.2 36.3V12.1H159V12.2ZM159 33.7C158.5 33.9 157.7 34 156.4 34C152.9 34 151.1 32.1 151.1 28.2C151.1 26.2 151.6 24.7 152.5 23.7C153.4 22.6 154.7 22.1 156.4 22.1C157.4 22.1 158.3 22.2 159 22.5V33.7Z" fill="#FF5800"/>
<path d="M182.4 27C182.4 24.4 181.7 22.4 180.4 20.8C179 19.3 177.2 18.5 174.9 18.5C172.3 18.5 170.3 19.4 168.8 21.1C167.3 22.8 166.5 25.1 166.5 28.1C166.5 31 167.3 33.3 168.9 34.9C170.5 36.5 172.8 37.3 175.8 37.3C177.8 37.3 179.6 37 181.3 36.3L180.9 33.2C179.4 33.7 177.8 34 176.1 34C172.6 34 170.8 32.4 170.7 29.3H182.4V27ZM170.8 26.2C170.9 24.8 171.3 23.8 172 23C172.7 22.2 173.6 21.9 174.7 21.9C175.8 21.9 176.7 22.3 177.4 23C178.1 23.8 178.4 24.8 178.4 26.2H170.8Z" fill="#FF5800"/>
<path d="M12.0001 11.4C10.6001 14.1 9.5001 16.3 8.6001 18C7.7001 19.6 6.90009 21 6.20009 22C5.50009 23 4.7001 23.9 3.9001 24.5C3.1001 25.1 2.00009 25.9 0.800095 26.6L0.100098 25.5C0.900098 24.9 1.60009 24.3 2.30009 23.8C2.90009 23.2 3.6001 22.4 4.4001 21.4C5.1001 20.4 6.0001 19 6.9001 17.3C7.9001 15.6 9.00009 13.3 10.5001 10.4C11.5001 8.3 12.5001 6.6 13.4001 5.2C14.3001 3.9 15.2001 2.8 16.0001 2C16.8001 1.2 17.7001 0.700002 18.5001 0.400002C19.3001 0.100002 20.1001 0 20.9001 0C21.7001 0 22.4001 0.199998 23.2001 0.599998C24.0001 0.999998 24.8001 1.7 25.7001 2.7C26.6001 3.7 27.6001 5.2 28.7001 7.2C29.8001 9.1 31.1001 11.7 32.7001 14.9C33.7001 16.9 34.6001 18.7 35.5001 20C36.4001 21.4 37.3001 22.5 38.2001 23.4C39.1001 24.3 40.1001 25 41.2001 25.6C42.3001 26.2 43.5001 26.6 45.0001 27.1L45.9001 28.6C44.2001 28.4 42.7001 28.1 41.3001 27.6C40.0001 27.1 38.7001 26.4 37.6001 25.4C36.4001 24.4 35.3001 23.1 34.3001 21.6C33.2001 20 32.1001 18.1 31.0001 15.8C29.6001 13 28.4001 10.6 27.4001 8.9C26.4001 7.1 25.5001 5.7 24.8001 4.7C24.0001 3.7 23.4001 3 22.8001 2.7C22.2001 2.4 21.6001 2.2 21.0001 2.1C20.3001 2.1 19.7001 2.2 19.1001 2.5C18.5001 2.8 17.8001 3.3 17.1001 4C16.4001 4.7 15.7001 5.7 14.9001 6.9C13.8001 8.1 13.0001 9.6 12.0001 11.4Z" fill="url(#paint0_linear)"/>
<path d="M33.0001 29.4C35.1001 29.5 37.1001 29.4 39.2001 29.1C41.2001 28.8 43.0001 28.4 44.6001 27.8L44.8001 28.9C42.0001 30.7 38.1001 31.5 33.0001 31.3C30.7001 31.2 28.7001 31 27.1001 30.5C25.4001 30.1 24.0001 29.5 22.7001 28.9C21.7001 28.5 20.8001 28 19.9001 27.5C19.0001 27 18.1001 26.6 17.2001 26.2C16.3001 25.8 15.4001 25.5 14.4001 25.2C13.4001 24.9 12.4001 24.8 11.4001 24.7C9.8001 24.6 8.2001 24.8 6.6001 25.1C5.0001 25.4 3.40009 25.8 1.80009 26.4L1.1001 25.6L2.4001 25C3.7001 24.3 5.10009 23.7 6.70009 23.3C8.30009 22.9 9.90009 22.7 11.5001 22.8C12.7001 22.8 13.9001 23 14.9001 23.3C15.9001 23.6 16.9001 23.9 17.8001 24.4C18.7001 24.8 19.7001 25.3 20.6001 25.8C21.5001 26.3 22.5001 26.8 23.5001 27.2C24.8001 27.8 26.2001 28.3 27.6001 28.7C28.9001 29.1 30.8001 29.3 33.0001 29.4Z" fill="url(#paint1_linear)"/>
<path d="M36 14.4C35.3 14.4 34.6 14.5 33.9 14.9C33.2 15.3 32.5 15.9 31.6 16.9C30.7 17.9 29.7 19.3 28.5 21C27.3 22.7 25.9 25 24.1 27.8C21.8 31.6 19.6 34.3 17.6 36C15.6 37.7 13.5 38.5 11.3 38.4C9 38.3 6.8 37.2 4.7 34.9C2.6 32.7 1.1 29.5 0 25.6L2 26C3.1 29.2 4.40001 31.7 6.10001 33.6C7.80001 35.5 9.5 36.5 11.3 36.5C13 36.6 14.8 35.8 16.5 34.3C18.3 32.8 20.2 30.3 22.3 26.9C24.2 23.8 25.8 21.4 27.1 19.5C28.4 17.6 29.5 16.1 30.5 15.1C31.5 14 32.4 13.3 33.2 13C34 12.6 34.9 12.5 35.9 12.5C38.1 12.6 40.1 13.9 41.8 16.5C43.5 19.1 45 23 46.4 28.2L44.3 27.3C43 22.9 41.6 19.7 40.3 17.6C39 15.5 37.5 14.4 36 14.4Z" fill="url(#paint2_linear)"/>
<path d="M28.4999 44C29.4999 44 30.4999 43.7 31.4999 43C32.4999 42.3 33.7999 40.9 35.2999 38.9C36.4999 37.3 37.4999 36.1 38.2999 35C39.0999 34 39.7999 33.1 40.4999 32.3C41.1999 31.5 41.8999 30.8 42.5999 30.1C43.2999 29.4 44.1999 28.5 45.2999 27.5L46.4999 28.2C45.4999 29.3 44.6999 30.3 43.9999 31C43.2999 31.8 42.6999 32.6 41.9999 33.4C41.3999 34.2 40.5999 35.1 39.8999 36.2C39.0999 37.2 38.0999 38.5 36.8999 40.1C35.2999 42.3 33.7999 43.9 32.4999 44.8C31.1999 45.7 29.7999 46.2 28.2999 46.1C27.4999 46.1 26.6999 45.9 26.0999 45.7C25.3999 45.5 24.6999 45 23.7999 44.3C22.8999 43.6 21.8999 42.6 20.6999 41.3C19.4999 40 17.9999 38.3 16.1999 36.2C14.7999 34.6 13.5999 33.3 12.4999 32.2C11.3999 31.1 10.2999 30.3 9.19989 29.6C8.09989 28.9 6.89989 28.4 5.69989 28.1C4.49989 27.7 3.0999 27.5 1.3999 27.3L1.8999 25.8C3.5999 25.9 5.0999 26.2 6.3999 26.4C7.6999 26.7 8.8999 27.2 10.0999 27.8C11.2999 28.5 12.3999 29.3 13.5999 30.4C14.7999 31.5 16.0999 32.9 17.5999 34.6C19.3999 36.7 20.8999 38.3 21.9999 39.6C23.0999 40.8 24.0999 41.8 24.8999 42.4C25.6999 43.1 26.2999 43.5 26.7999 43.7C27.3999 43.9 27.8999 44 28.4999 44Z" fill="url(#paint3_linear)"/>
<defs>
<linearGradient id="paint0_linear" x1="-0.570403" y1="23.1968" x2="41.3109" y2="11.9747" gradientUnits="userSpaceOnUse">
<stop offset="0.2" stop-color="#FF5800"/>
<stop offset="0.2422" stop-color="#FF7000"/>
<stop offset="0.3192" stop-color="#FF9500"/>
<stop offset="0.3963" stop-color="#FFB200"/>
<stop offset="0.4725" stop-color="#FFC600"/>
<stop offset="0.5476" stop-color="#FFD300"/>
<stop offset="0.62" stop-color="#FFD700"/>
<stop offset="0.6597" stop-color="#FFCE00"/>
<stop offset="0.7244" stop-color="#FFB600"/>
<stop offset="0.8061" stop-color="#FF8E00"/>
<stop offset="0.9" stop-color="#FF5800"/>
</linearGradient>
<linearGradient id="paint1_linear" x1="0.919698" y1="27.1069" x2="44.7422" y2="27.1069" gradientUnits="userSpaceOnUse">
<stop offset="0.09" stop-color="#FF5800"/>
<stop offset="0.1898" stop-color="#FF7907"/>
<stop offset="0.3059" stop-color="#FF990E"/>
<stop offset="0.4034" stop-color="#FFAD12"/>
<stop offset="0.47" stop-color="#FFB414"/>
<stop offset="0.5314" stop-color="#FFAD12"/>
<stop offset="0.6235" stop-color="#FF980E"/>
<stop offset="0.7342" stop-color="#FF7707"/>
<stop offset="0.82" stop-color="#FF5800"/>
</linearGradient>
<linearGradient id="paint2_linear" x1="1.1128" y1="20.6172" x2="46.054" y2="30.1697" gradientUnits="userSpaceOnUse">
<stop offset="0.5" stop-color="#FF5800"/>
<stop offset="0.64" stop-color="#CE056A" stop-opacity="0.99"/>
<stop offset="0.7559" stop-color="#CF0768" stop-opacity="0.9937"/>
<stop offset="0.8091" stop-color="#D20C60" stop-opacity="0.9955"/>
<stop offset="0.8494" stop-color="#D81654" stop-opacity="0.9968"/>
<stop offset="0.8833" stop-color="#E12542" stop-opacity="0.9978"/>
<stop offset="0.9131" stop-color="#EC372A" stop-opacity="0.9988"/>
<stop offset="0.9397" stop-color="#F94E0D" stop-opacity="0.9997"/>
<stop offset="0.95" stop-color="#FF5800"/>
</linearGradient>
<linearGradient id="paint3_linear" x1="2.9475" y1="37.6554" x2="46.9658" y2="31.469" gradientUnits="userSpaceOnUse">
<stop stop-color="#FF5800"/>
<stop offset="0.0624571" stop-color="#FC5400"/>
<stop offset="0.1272" stop-color="#F54700"/>
<stop offset="0.1929" stop-color="#E83300"/>
<stop offset="0.259" stop-color="#D61600"/>
<stop offset="0.3" stop-color="#C80000"/>
<stop offset="0.48" stop-color="#C80000"/>
<stop offset="0.91" stop-color="#FF5800"/>
</linearGradient>
</defs>
</svg>
