<svg width="169" height="45" viewBox="0 0 169 45" fill="none" xmlns="http://www.w3.org/2000/svg">
<path d="M153.7 32.4L152.8 33.3C152.4 33.7 151.9 33.7 151.5 33.3C151.1 32.9 151.1 32.4 151.5 32L152.4 31.1C152.8 30.7 153.3 30.7 153.7 31.1C154 31.5 154 32 153.7 32.4Z" fill="#EE3E25"/>
<path d="M148 31.8C147.6 31.4 147.1 31.4 146.7 31.8L145.8 32.7C145.4 33.1 145.4 33.6 145.8 34C146.2 34.4 146.7 34.4 147.1 34L148 33.1C148.3 32.7 148.3 32.1 148 31.8Z" fill="#EE3E25"/>
<path d="M159.1 27C159.1 27 159.1 26.9 159.1 27C161 25.1 161 22.3 159.2 20.5C157.4 18.7 154.6 18.7 152.8 20.5C152.7 20.6 152.7 20.6 152.6 20.7C152.6 20.7 152.5 20.7 152.5 20.8L147.7 25.6C147.3 26 147.3 26.5 147.7 26.9C148.1 27.3 148.6 27.3 149 26.9L151 24.9C151.4 24.5 151.9 24.5 152.3 24.9C152.7 25.3 152.7 25.8 152.3 26.2L152.2 26.3L148.6 29.9C148.2 30.3 148.2 30.8 148.6 31.2C149 31.6 149.5 31.6 149.9 31.2L153.6 27.5C154 27.1 154.5 27.1 154.9 27.5C155.3 27.9 155.3 28.4 154.9 28.8L154.4 29.3C154 29.7 154 30.2 154.4 30.6C154.8 31 155.3 31 155.7 30.6L159.1 27Z" fill="#EE3E25"/>
<path d="M0 5C0 2.2 2.2 0 5 0C7.8 0 10 2.2 10 5C10 7.8 7.8 10 5 10C2.3 10 0 7.8 0 5Z" fill="#26265E"/>
<path d="M164.9 14.8C160 9.9 152.1 9.9 147.2 14.8C143.9 18.1 142.8 22.7 144 26.9L151.7 19.2C154.1 16.8 158.1 16.8 160.6 19.2C163 21.6 163 25.6 160.6 28.1L152.9 35.8C157.1 36.9 161.7 35.8 165 32.6C169.8 27.6 169.8 19.7 164.9 14.8Z" fill="#26265E"/>
<path d="M133 19.6C130.6 19.3 129.9 19.2 129.9 18.5C129.9 18 130.8 17.5 132.1 17.5C134.3 17.5 136.4 18.3 138 19.2C138.7 19.5 139.4 19.3 139.9 18.7L141.8 15.4C142.2 14.7 142 13.9 141.4 13.5C138.8 12.1 135.7 11.1 132.2 11.1C125.3 11.1 121.5 15 121.5 19.3C121.5 26 127.7 26.8 131.7 27.4C133.6 27.6 135.1 27.8 135.1 28.6C135.1 29.2 134.6 29.6 132.7 29.6C130.5 29.6 127.3 28.5 125.2 27.3C124.5 27 123.8 27.2 123.3 27.8L121.1 31.5C120.8 32.1 121 32.9 121.6 33.3C124.3 35 128.4 36.2 132.2 36.2C133.1 36.2 134 36.1 134.8 36L143.5 27.3C143.1 21.1 136.9 20.2 133 19.6Z" fill="#26265E"/>
<path d="M119.5 34.1V4.19995C119.5 3.39995 118.8 2.69995 118 2.69995H112.1C111.3 2.69995 110.6 3.39995 110.6 4.19995V4.49995V33.8999V34.1C110.6 34.9 111.3 35.6 112.1 35.6H118C118.8 35.6 119.5 35 119.5 34.1Z" fill="#26265E"/>
<path d="M107.5 13.5V13.3C107.5 12.5 106.8 11.8 106 11.8H100.1C99.2999 11.8 98.5999 12.5 98.5999 13.3V26.5C97.8999 27.3 96.7999 28.4 94.7999 28.4C92.5999 28.4 91.2999 27.5 91.2999 25V13.3C91.2999 12.5 90.5999 11.8 89.7999 11.8H83.8999C83.0999 11.8 82.3999 12.5 82.3999 13.3V28.8C82.3999 32.9 84.7999 36.2 90.2999 36.2C94.4999 36.2 97.0999 34.5 98.4999 32.9V34C98.4999 34.8 99.1999 35.5 99.9999 35.5H106C106.8 35.5 107.4 34.8 107.4 34V33.7V13.5H107.5Z" fill="#26265E"/>
<path d="M51.8999 34.1V18.3C51.8999 13.4 48.8999 11.1 44.4999 11.1C40.5999 11.1 37.4999 13.2 36.0999 15.3C34.9999 12.3 32.5999 11.1 29.1999 11.1C25.2999 11.1 22.2999 13.1 21.2999 14.4V13.4V13.2C21.2999 12.4 20.5999 11.7 19.7999 11.7H13.8999C13.0999 11.7 12.3999 12.4 12.3999 13.2V34C12.3999 34.8 13.0999 35.5 13.8999 35.5H19.7999C20.5999 35.5 21.2999 34.8 21.2999 34V33.7V20.7C21.8999 20 22.9999 18.8 24.8999 18.8C26.8999 18.8 27.5999 20 27.5999 21.5V33.9C27.5999 34.7 28.2999 35.4 29.0999 35.4H34.9999C35.7999 35.4 36.4999 34.7 36.4999 33.9V20.7C37.0999 20 38.1999 18.8 40.1999 18.8C42.1999 18.8 42.8999 20 42.8999 21.5V33.9C42.8999 34.7 43.5999 35.4 44.3999 35.4H50.2999C51.1999 35.6 51.8999 35 51.8999 34.1Z" fill="#26265E"/>
<path d="M70.6 11.2C68.1 11.2 65.8 12 63.9 14.3V13.3C63.9 12.5 63.2 11.8 62.4 11.8H56.5C55.7 11.8 55 12.5 55 13.3V13.6V43V43.2C55 44 55.7 44.7 56.5 44.7H62.4C63.2 44.7 63.9 44 63.9 43.2V33.1C65.9 35.4 68.1 36.2 70.6 36.2C76.5 36.2 81.1 31.9 81.1 23.6C81.1 15.5 76.5 11.2 70.6 11.2ZM67.5 28.3999C66.4 28.3999 64.6 27.8 63.8 26.8V20.7C64.6 19.7 66.3 19.1 67.5 19.1C69.9 19.1 71.9 20.8 71.9 23.7C72 26.7 69.9 28.3999 67.5 28.3999Z" fill="#26265E"/>
<path d="M9.50006 34.1001V13.3C9.50006 12.5 8.80006 11.8 8.00006 11.8H2.1001C1.3001 11.8 0.600098 12.5 0.600098 13.3V34.1001C0.600098 34.9001 1.3001 35.6001 2.1001 35.6001H8.00006C8.80006 35.6001 9.50006 35.0001 9.50006 34.1001Z" fill="#26265E"/>
</svg>
